Coordinates
version=1
nRows=16
nColumns=36
inDegrees=yes

Units are S.I. units (second, meters, Newtons, ...)
If the header above contains a line with 'inDegrees', this indicates whether rotational values are in degrees (yes) or radians (no).

endheader
time	pelvis_tilt	pelvis_list	pelvis_rotation	pelvis_tx	pelvis_ty	pelvis_tz	hip_flexion_r	hip_adduction_r	hip_rotation_r	knee_angle_r	knee_angle_r_beta	ankle_angle_r	subtalar_angle_r	mtp_angle_r	hip_flexion_l	hip_adduction_l	hip_rotation_l	knee_angle_l	knee_angle_l_beta	ankle_angle_l	subtalar_angle_l	mtp_angle_l	lumbar_extension	lumbar_bending	lumbar_rotation	arm_flex_r	arm_add_r	arm_rot_r	elbow_flex_r	pro_sup_r	arm_flex_l	arm_add_l	arm_rot_l	elbow_flex_l	pro_sup_l
      2.10000000	      0.99652884	     -1.43337153	      2.94531130	      0.41655585	      0.89984214	     -0.10471347	     -3.29780380	      0.22805411	      2.36084830	      0.83602319	      0.01459136	      5.95409452	    -16.53258113	     -7.49999987	     -3.05559102	     -4.88253036	      5.92820226	      0.88636009	      0.01546990	      6.82254638	     -8.11084803	     -7.49999987	     -5.43558775	     -0.49318832	      0.95789290	      6.05120402	     -9.83668404	     27.18343231	     26.04223477	     69.60030135	      3.36984396	    -11.43750161	     26.13284658	     27.69458385	     63.72417254
      2.11666670	      1.05673818	     -1.40688498	      3.01537449	      0.41498383	      0.89635279	     -0.10560271	     -3.23507940	      0.12442710	      2.38030891	      0.87124587	      0.01520611	      6.11270259	    -16.42328026	     -7.49999987	     -2.91663904	     -4.78059227	      5.80833261	      1.05024555	      0.01833024	      6.87819010	     -8.08841948	     -7.49999987	     -5.80121562	     -0.43170771	      0.84209546	      6.27122890	     -9.81079765	     26.47506273	     25.83903937	     73.56585489	      3.48542836	    -11.29633735	     25.44827368	     27.67192709	     66.13942671
      2.13333330	      0.96272447	     -1.39960279	      3.04713471	      0.41498094	      0.89663862	     -0.10196676	     -3.01275168	      0.11370224	      2.49864709	      0.92135577	      0.01608069	      6.13722755	    -16.42137979	     -7.49999987	     -2.64242260	     -4.77159349	      5.87770082	      1.13506066	      0.01981055	      6.81713686	     -8.11168881	     -7.49999987	     -5.98995332	     -0.43049761	      0.83111045	      6.36732548	     -9.80790363	     26.37692695	     25.87953399	     73.58185380	      3.64086757	    -11.32188148	     25.35739596	     27.71890396	     66.14562796
      2.15000000	      0.67333399	     -1.38535694	      3.08505140	      0.41207583	      0.89724485	     -0.10895633	     -2.50749993	     -0.05001710	      2.52290521	      1.05005277	      0.01832688	      5.97344731	    -16.78502961	     -7.49999987	     -2.03540890	     -4.62118943	      6.04471288	      1.35803457	      0.02370217	      6.73798785	     -8.57772124	     -7.49999987	     -6.01540233	     -0.30867095	      0.75782132	      6.37740325	     -9.91723482	     25.78318364	     26.04543398	     73.67245446	      3.70035228	    -11.16088513	     24.90165701	     27.83612779	     66.20953001
      2.16666670	      0.54060874	     -1.35039018	      3.09094332	      0.40965782	      0.89583069	     -0.10831314	     -2.15006135	     -0.18884645	      2.72518233	      1.16126339	      0.02026787	      5.80607770	    -17.15549666	     -7.49999987	     -1.62600233	     -4.47621458	      6.25351959	      1.53495448	      0.02679001	      6.45961550	     -9.23533270	     -7.49999987	     -6.33975691	     -0.25571738	      0.75485472	      6.26601937	     -9.80016201	     23.40085930	     26.32681759	     77.00040460	      3.80305433	    -10.92170812	     23.16409347	     28.02164947	     68.87381974
      2.18333330	      0.28414906	     -1.29958565	      3.06225537	      0.40812110	      0.89512833	     -0.10732814	     -1.65042989	     -0.31418679	      2.79996917	      1.30964343	      0.02285759	      5.69844158	    -17.44221064	     -7.49999987	     -1.01419502	     -4.34479294	      6.27974184	      1.84621950	      0.03222261	      6.35325638	     -9.47943392	     -7.49999987	     -6.50104680	     -0.23901214	      0.71769322	      6.36272253	     -9.88470205	     23.28933238	     26.43414329	     77.02535661	      3.96904211	    -10.90015254	     22.94355895	     28.12390018	     69.22292141
      2.20000000	      0.08817075	     -1.19529606	      2.98757401	      0.40464788	      0.89667281	     -0.11046926	     -1.19818794	     -0.55046096	      2.88313679	      1.44982900	      0.02530429	      5.69506333	    -17.53756476	     -7.49999987	     -0.41640797	     -4.13818725	      6.31277799	      2.17379578	      0.03793989	      6.15908208	     -9.90325862	     -7.49999987	     -6.90061156	     -0.25434811	      0.69172431	      6.58489287	    -10.03146033	     23.78442087	     26.69835808	     73.47046579	      4.16542011	    -10.89934773	     22.95299949	     28.46776158	     67.25734686
      2.21666670	     -0.33438949	     -1.07245053	      2.88890568	      0.40101036	      0.89457967	     -0.11093282	     -0.44738531	     -0.80792672	      2.95619558	      1.61860722	      0.02825003	      5.51236215	    -17.84989557	     -7.49999987	      0.53144913	     -3.89538712	      6.33739170	      2.66392598	      0.04649428	      5.88975712	    -10.42485945	     -7.49999987	     -7.06931486	     -0.30570256	      0.66102310	      6.82384281	    -10.10084131	     24.00640061	     26.67479093	     72.93342690	      4.40849638	    -10.80567455	     22.73193372	     28.48503902	     67.16616833
      2.23333330	     -0.64680634	     -1.00730717	      2.80259527	      0.39824462	      0.89355486	     -0.10973402	      0.20095881	     -0.97153403	      3.07420505	      1.81874256	      0.03174305	      5.39378919	    -18.11813787	     -7.49999987	      1.41106551	     -3.74679902	      6.30711332	      3.22445066	      0.05627728	      5.79808321	    -10.71236300	     -7.49999987	     -7.51298138	     -0.28048472	      0.70191306	      6.97309889	    -10.10878986	     22.65914321	     26.84929903	     77.34149709	      4.57428711	    -10.71402669	     21.42880048	     28.78433456	     70.80775699
      2.25000000	     -1.10537400	     -0.87603003	      2.70794048	      0.39232387	      0.88835508	     -0.11147328	      1.12408047	     -1.21370559	      3.14842055	      2.12586390	      0.03710332	      5.01347229	    -18.88020944	     -7.49999987	      2.54224977	     -3.49466196	      6.03392859	      3.91544773	      0.06833745	      5.99270788	    -10.47223871	     -7.49999987	     -7.89588629	     -0.37657850	      0.67942437	      7.14451866	    -10.19841719	     22.50840649	     27.21809253	     75.72931707	      4.86688601	    -10.78913525	     21.30414048	     29.18298406	     69.83065746
      2.26666670	     -1.72792271	     -0.77565949	      2.60898147	      0.38493678	      0.88877585	     -0.11025771	      2.39987130	     -1.40582002	      3.11501125	      2.55511347	      0.04459514	      5.24714156	    -18.78160341	     -7.49999987	      3.94480643	     -3.26894951	      6.19987079	      4.66876341	      0.08148529	      5.55667874	    -11.46200087	     -7.49999987	     -8.32067796	     -0.50492483	      0.71847164	      7.49981922	    -10.26452032	     22.48134812	     27.45963839	     75.93741179	      5.27008481	    -10.91014777	     21.28402816	     29.65240913	     70.09304560
      2.28333330	     -2.33576753	     -0.68861768	      2.56329080	      0.38152387	      0.88376034	     -0.10981760	      3.67630934	     -1.57983378	      3.19955608	      3.01158481	      0.05256207	      5.16041280	    -19.24836176	     -7.49999987	      5.37637855	     -3.07877141	      6.10060928	      5.45666896	      0.09523684	      5.59068334	    -11.75542049	     -7.49999987	     -8.80147548	     -0.60782053	      0.68486220	      7.85507076	    -10.30192523	     22.20304479	     27.70302720	     75.27124243	      5.62722091	    -10.96175941	     20.91168227	     30.08010639	     69.84932312
      2.30000000	     -3.15274096	     -0.62605987	      2.47045870	      0.37560369	      0.87852269	     -0.10847741	      5.35499433	     -1.66596550	      3.26265321	      3.69833439	      0.06454811	      5.37449467	    -19.55598674	     -7.49999987	      7.10403298	     -2.95835770	      6.02799704	      6.37084443	      0.11119221	      5.65630596	    -12.25466284	     -7.49999987	     -9.20501255	     -0.78236004	      0.78532925	      8.14277289	    -10.41181200	     22.16161778	     28.16521465	     75.54494448	      6.03774450	    -11.16191498	     20.75475278	     30.83689076	     70.24301821
      2.31666670	     -3.93108344	     -0.59912212	      2.40903110	      0.36939669	      0.87738578	     -0.10884326	      7.03347544	     -1.72257270	      3.31412613	      4.44907316	      0.07765098	      5.50772408	    -19.81511307	     -7.49999987	      8.87639977	     -2.86624295	      5.76370971	      7.29811252	      0.12737609	      5.84396023	    -12.44161058	     -7.49999987	     -9.83047825	     -0.86194144	      0.84032338	      8.46779670	    -10.47614876	     21.73769361	     28.69402452	     74.14204158	      6.45125593	    -11.26929877	     20.20826063	     31.66212374	     69.44163772
      2.33333330	     -5.00643095	     -0.54588959	      2.32652314	      0.36276429	      0.87638785	     -0.10967229	      9.10547951	     -1.81900083	      3.10843857	      5.32737467	      0.09298023	      5.53876793	    -20.04549988	     -7.49999987	     11.03150341	     -2.71882021	      5.44926354	      8.37134465	      0.14610753	      6.02101009	    -12.62952614	     -7.49999987	    -10.25485204	     -0.96201012	      0.85540265	      8.80734582	    -10.58189914	     21.56533619	     29.26525414	     73.24546780	      6.83769305	    -11.47203961	     19.95391678	     32.47101766	     69.04608614
      2.35000000	     -6.54545488	     -0.53683975	      2.29751900	      0.35502574	      0.87349643	     -0.11042684	     11.82370765	     -1.92036446	      3.22283873	      6.39685363	      0.11164616	      5.32862409	    -20.89474266	     -7.49999987	     13.80665644	     -2.56097705	      5.32111500	      9.54175241	      0.16653500	      5.95856926	    -13.33538091	     -7.49999987	    -10.24688074	     -1.03205274	      0.75281088	      9.15613256	    -10.66528120	     20.67761396	     29.69325433	     78.88767733	      7.04212797	    -11.57824452	     18.32785953	     33.44240172	     76.89828215
